<svg height="511pt" viewBox="1 -8 511.999 511" width="511pt" xmlns="http://www.w3.org/2000/svg"><path d="m388.222656 292.871094-40.066406-40.066406 20.488281-15.578126c32.15625-24.449218 55.464844-59.449218 65.628907-98.542968 10.167968-39.097656 6.855468-81.015625-9.316407-118.03125l-8.808593-20.152344-160.148438 160.148438-160.148438-160.148438-8.808593 20.152344c-16.175781 37.015625-19.484375 78.933594-9.320313 118.03125 10.167969 39.09375 33.472656 74.089844 65.632813 98.542968l20.488281 15.578126-163.84375 163.84375 79.121094 79.121093 82.765625-82.765625 12.0625 12.0625 62.230469-62.230468-14.140626-14.140626 33.960938-25.824218 33.960938 25.824218-14.140626 14.140626 62.230469 62.230468 12.0625-12.0625 82.765625 82.765625 79.121094-79.121093zm-1.425781 41.011718-48.746094 48.746094-19.792969-19.792968 48.746094-48.746094zm18.191406-279.78125c15.78125 58.570313-4.96875 121.570313-54.503906 159.234376l-23.746094 18.054687-49.519531-49.523437zm-297.976562 0 238.769531 238.769532-34.40625 34.40625-149.859375-113.941406c-49.535156-37.664063-70.285156-100.664063-54.503906-159.234376zm-64.574219 362.546876 61.546875-61.546876 36.683594 36.683594-61.546875 61.546875zm131.511719-34.019532-48.746094-48.746094 19.792969-19.792968 20.996094 20.996094 27.746093 27.75zm26.671875-55.351562-34.40625-34.40625 21.738281-21.734375 43.253906 32.886719zm170.710937 64.507812 36.683594-36.683594 61.546875 61.546876-36.683594 36.683593zm0 0"/></svg>